# xmcd CD database file
#
# Track frame offsets:
#	150
#	28578
#	54675
#	72223
#	94723
#	113693
#
# Disc length: 1776 seconds
#
# Revision: 0
# Processed by: cddbd v1.5.2PL0 Copyright (c) Steve Scherf et al.
# Submitted via: CDex 1.51
#
DISCID=4806ee06
DTITLE=The Soul's Release - Where The Trees Are Painted White EP
DYEAR=2009
DGENRE=New Age
TTITLE0=Silent Charm
TTITLE1=Catching Fireflies
TTITLE2=Where The Trees Are Painted White
TTITLE3=Sleeping Through The Night
TTITLE4=Set Sail To Nowhere
TTITLE5=Untitled
EXTD=YEAR: 2009
EXTT0=
EXTT1=
EXTT2=
EXTT3=
EXTT4=
EXTT5=
PLAYORDER=
